<svg width="42" height="22" viewBox="0 0 42 22" fill="none" xmlns="http://www.w3.org/2000/svg">
<path d="M38.498 7.38883e-07C37.9281 0.000144856 37.367 0.136941 36.8632 0.398506C36.3595 0.66007 35.9283 1.03849 35.6073 1.50089C35.2863 1.96329 35.0851 2.49568 35.0212 3.05182C34.9573 3.60795 35.0326 4.171 35.2406 4.69205L27.8762 11.9252C27.0552 11.6078 26.1423 11.6078 25.3214 11.9252L20.0569 6.75449C20.2653 6.23332 20.341 5.67003 20.2773 5.11359C20.2136 4.55715 20.0125 4.02441 19.6914 3.56171C19.3704 3.09901 18.9391 2.72035 18.4351 2.45866C17.931 2.19698 17.3696 2.06019 16.7995 2.06019C16.2294 2.06019 15.6679 2.19698 15.1639 2.45866C14.6599 2.72035 14.2286 3.09901 13.9075 3.56171C13.5864 4.02441 13.3853 4.55715 13.3216 5.11359C13.2579 5.67003 13.3336 6.23332 13.5421 6.75449L4.77782 15.3626C4.02933 15.0742 3.20257 15.0478 2.43655 15.2877C1.67053 15.5276 1.01197 16.0192 0.571608 16.6799C0.131245 17.3406 -0.0640664 18.1301 0.0185146 18.9157C0.101096 19.7012 0.456532 20.4348 1.02506 20.9932C1.59359 21.5516 2.34053 21.9007 3.1403 21.9818C3.94007 22.0629 4.74388 21.8711 5.41658 21.4386C6.08928 21.0061 6.58985 20.3592 6.83411 19.6069C7.07836 18.8545 7.05142 18.0425 6.7578 17.3073L15.5221 8.6992C16.343 9.0166 17.2559 9.0166 18.0769 8.6992L23.3414 13.8699C23.1329 14.3911 23.0573 14.9544 23.1209 15.5108C23.1846 16.0673 23.3857 16.6 23.7068 17.0627C24.0279 17.5254 24.4592 17.9041 24.9632 18.1657C25.4672 18.4274 26.0287 18.5642 26.5988 18.5642C27.1689 18.5642 27.7304 18.4274 28.2344 18.1657C28.7384 17.9041 29.1697 17.5254 29.4908 17.0627C29.8118 16.6 30.0129 16.0673 30.0766 15.5108C30.1403 14.9544 30.0646 14.3911 29.8562 13.8699L37.2205 6.63676C37.6998 6.82167 38.2146 6.90045 38.7284 6.86749C39.2422 6.83452 39.7422 6.69062 40.1929 6.44604C40.6435 6.20147 41.0337 5.86224 41.3355 5.45255C41.6374 5.04287 41.8435 4.57281 41.9391 4.07592C42.0347 3.57902 42.0176 3.06751 41.8888 2.57788C41.7601 2.08824 41.5229 1.63254 41.1943 1.24326C40.8656 0.853984 40.4536 0.540726 39.9875 0.325824C39.5214 0.110921 39.0128 -0.000330812 38.498 7.38883e-07Z" fill="#989898"/>
</svg>
