<svg width="28" height="28" viewBox="0 0 28 28" fill="none" xmlns="http://www.w3.org/2000/svg">
<path d="M14 0C6.26635 0 0 6.26635 0 14C0 21.7337 6.26635 28 14 28C21.7337 28 28 21.7337 28 14C28 6.26635 21.7337 0 14 0ZM23.6452 17.7625C23.1 17.5875 22.05 17.5337 21.6596 17.0625C21.4644 16.8269 21.5923 15.9452 21.5923 15.9452C23.2885 15.851 23.6788 15.5346 23.6788 15.5346C23.9413 15.3798 23.8202 15.3529 23.6856 15.124C22.9519 13.8923 23.2817 12.3308 23.2481 10.9779C23.2212 9.85385 22.925 8.62212 21.9019 7.98942C21.3904 7.67308 20.576 7.525 19.7885 7.525C19.149 7.525 18.5298 7.61923 18.0856 7.80096C15.2317 8.94519 16.9144 12.7279 15.9385 14.8952C15.7702 15.2587 15.5279 15.3865 15.9519 15.6019C15.9519 15.6019 16.4567 15.8981 17.8971 16.026C17.8971 16.026 17.9173 16.874 17.8971 16.9615C17.8231 17.2913 17.1029 17.5202 16.8337 17.5942C16.6519 17.6413 16.2481 17.7625 15.7298 17.9779C15.4808 18.0788 15.5212 18.4423 15.7837 18.4894C16.0462 18.5365 16.3288 18.6038 16.5577 18.6846C16.5577 18.6846 18.3346 19.0885 19.6538 20.3673C20.5423 21.2221 20.8721 22.225 21 23.3692C21.0337 23.6721 20.8856 23.9683 20.6298 24.1433L20.2462 24.3856C20.1183 24.4596 19.9635 24.3721 19.9567 24.224C19.9567 22.2385 18.7587 20.4885 16.874 19.8356C15.9654 19.5192 14.9827 19.499 14.074 19.1827C13.7981 19.0885 13.2529 18.974 13.1385 18.6577C13.0308 18.3481 13.0308 17.9846 13.0106 17.6615C12.9971 17.4058 12.9904 17.15 12.9904 16.8942C12.9904 16.726 13.4212 16.3692 13.5154 16.2144C13.8788 15.6087 13.9125 14.7942 13.9798 14.1077C14.5654 14.2692 14.6394 13.1856 14.7404 12.8558C14.8144 12.6269 15.0769 11.449 14.5654 11.2673C14.7337 10.9712 14.801 10.6077 14.8481 10.2779C14.9827 9.41635 15.0365 8.47404 14.774 7.63269C14.2288 5.88269 12.5529 4.9 10.7827 4.84615C8.98558 4.78558 7.18173 5.64712 6.50865 7.39039C6.18558 8.23846 6.2125 9.16058 6.32019 10.049C6.36731 10.4529 6.43462 10.9038 6.63654 11.2673C6.20577 11.4558 6.33365 12.4587 6.40769 12.701C6.51538 13.0442 6.60962 14.276 7.22212 14.1077C7.27596 14.6529 7.33654 15.2115 7.48462 15.7433C7.58558 16.1 7.79423 16.4029 8.03654 16.6788C8.15769 16.8135 8.21827 16.8269 8.21154 17.0019C8.20481 17.5269 8.21827 18.0923 8.08365 18.6038C7.94904 19.1154 6.825 19.3308 6.37404 19.425C5.37788 19.6269 4.44904 19.7413 3.5875 20.199C2.47692 18.3481 1.88462 16.2212 1.88462 14C1.88462 10.776 3.17692 7.67308 5.46538 5.40481C7.72019 3.16346 10.7087 1.91154 13.8856 1.88462C17.0894 1.85769 20.1923 3.10288 22.4875 5.35096C24.8298 7.64615 26.1221 10.7288 26.1221 14C26.1221 15.676 25.7856 17.2913 25.1462 18.7856C24.7692 18.3144 24.2442 17.9577 23.6452 17.7625Z" fill="#989898"/>
</svg>
