<svg width="24" height="24" viewBox="0 0 24 24" fill="none" xmlns="http://www.w3.org/2000/svg">
<path d="M22.0187 11.9969C22.0187 10.6847 22.8375 9.56626 24 9.11638C23.6938 7.83546 23.1875 6.63577 22.5187 5.54856C22.1187 5.72351 21.6938 5.81724 21.2625 5.81724C20.475 5.81724 19.6875 5.51731 19.0812 4.91747C18.15 3.98646 17.9438 2.61807 18.4438 1.48086C17.3625 0.812288 16.1562 0.30617 14.8813 0C14.4375 1.15595 13.3125 1.98073 12 1.98073C10.6875 1.98073 9.5625 1.15595 9.11875 0C7.8375 0.30617 6.6375 0.812288 5.55 1.48086C6.05625 2.61182 5.84375 3.98646 4.9125 4.91747C4.3125 5.51731 3.51875 5.81724 2.73125 5.81724C2.3 5.81724 1.875 5.72976 1.475 5.54856C0.8125 6.64202 0.30625 7.84171 0 9.12262C1.15625 9.56626 1.98125 10.6847 1.98125 12.0031C1.98125 13.3153 1.1625 14.4337 0.0062499 14.8836C0.3125 16.1645 0.81875 17.3642 1.4875 18.4514C1.8875 18.2765 2.3125 18.189 2.7375 18.189C3.525 18.189 4.3125 18.4889 4.91875 19.0888C5.84375 20.0135 6.05625 21.3882 5.55625 22.5191C6.64375 23.1877 7.85 23.6938 9.125 24C9.56875 22.8441 10.6875 22.0255 12 22.0255C13.3125 22.0255 14.4312 22.8441 14.875 24C16.1562 23.6938 17.3563 23.1877 18.4438 22.5191C17.9438 21.3882 18.1562 20.0198 19.0812 19.0888C19.6812 18.4889 20.4688 18.189 21.2625 18.189C21.6875 18.189 22.1188 18.2765 22.5125 18.4514C23.1813 17.3642 23.6875 16.1583 23.9937 14.8836C22.8438 14.4337 22.0187 13.3153 22.0187 11.9969ZM12.0562 16.9893C9.2875 16.9893 7.05625 14.7462 7.05625 11.9906C7.05625 9.2351 9.2875 6.99193 12.0562 6.99193C14.825 6.99193 17.0562 9.2351 17.0562 11.9906C17.0562 14.7462 14.825 16.9893 12.0562 16.9893Z" fill="#989898"/>
</svg>
